<?xml version="1.0" encoding="utf-8"?>
<svg version="1.1" id="Layer_1" xmlns="http://www.w3.org/2000/svg" xmlns:xlink="http://www.w3.org/1999/xlink" x="0px" y="0px"
   viewBox="0 0 250 250" style="enable-background:new 0 0 250 250;" xml:space="preserve">
<style type="text/css">
  .st0{opacity:0.4;fill:#5BBA6F;}
  .st1{fill:#1A936F;}
  .st2{fill:#0B5D1E;}
  .st3{fill:#2A9134;}
</style>
<circle class="st0" cx="125" cy="125" r="125"/>
<g>
  <polygon class="st1" points="205,58 179.4,91.2 171.9,91.2 152.6,58  "/>
  <polygon class="st1" points="121.1,113 106.6,109.4 106.6,91.2 74.4,91.2 100.1,58 103.1,58   "/>
  <polygon class="st2" points="96.7,58 67.8,91.2 62.8,91.2 45,63 45,58  "/>
  <polygon class="st1" points="106.6,202.9 122.3,182.8 143.6,207.8 143.6,218 106.6,218  "/>
  <polygon class="st3" points="142.4,58 125.3,110.6 108.1,58  "/>
  <polygon class="st3" points="45,71 57,91.2 45,91.2  "/>
  <polygon class="st3" points="143.6,167.7 124.3,175.9 125.3,120.9 143.6,133.9  "/>
  <polygon class="st1" points="106.6,132.8 121.1,121.5 120.1,175.5 106.7,169.5  "/>
  <polygon class="st2" points="143.6,108.1 130.8,112.4 147.3,60.3 164.9,91.2 143.6,91.2   "/>
  <polygon class="st3" points="205,91.2 186.1,91.2 205,67.3   "/>
  <polygon class="st2" points="143.6,200.2 126.5,180.7 143.6,173.5  "/>
  <polygon class="st3" points="106.6,175.5 118.4,180.4 106.6,195.1  "/>
  <polygon class="st1" points="143.6,127 132.6,118 143.6,113.8  "/>
  <polygon class="st2" points="106.6,123.5 106.6,114.5 118,116.5  "/>
</g>
</svg>
