<?xml version="1.0" encoding="utf-8"?>
<!-- Generator: Adobe Illustrator 18.1.1, SVG Export Plug-In . SVG Version: 6.00 Build 0)  -->
<svg version="1.1" id="Layer_1" xmlns="http://www.w3.org/2000/svg" xmlns:xlink="http://www.w3.org/1999/xlink" x="0px" y="0px"
	 viewBox="0 0 250 250" enable-background="new 0 0 250 250" xml:space="preserve">
<g>
	<path fill="#0089C7" d="M158,84c0-19.8-15-27.5-37-27.5c-10,0-15.8,0.8-19.3,1.5v54.3h19.8C144.5,112.2,158,100.2,158,84z"/>
	<path fill="#0089C7" d="M119.8,128.7h-18V193c4.3,0.8,10.5,1,18.3,1c22.5,0,43.3-8.3,43.3-32.8
		C163.3,138.2,143.5,128.7,119.8,128.7z"/>
	<path fill="#0089C7" d="M125,0C56,0,0,56,0,125s56,125,125,125s125-56,125-125S194,0,125,0z M172,195.2
		C160.3,206,141.3,211,113.8,211c-15,0-26.5-1-33.8-2V43.2c9.5-2,24.5-3.5,39.8-3.5c21.8,0,35.8,3.8,46.3,12.3
		c8.8,6.5,14,16.5,14,29.8c0,16.3-10.8,30.5-28.5,37v0.5c16,4,34.8,17.3,34.8,42.3C186.3,176,180.5,187,172,195.2z"/>
</g>
</svg>
