<?xml version="1.0" encoding="UTF-8" standalone="no"?>
<svg
     xmlns="http://www.w3.org/2000/svg"
     xmlns:xlink="http://www.w3.org/1999/xlink"
     version="1.1"
     width="404"
     height="77"
     id="svg3078"
     >
    <defs
         id="defs4">
        <clipPath
             id="clipPath3844">
            <path
                 d="m 421.7892,704.8192 -31.46626,27.93072 -8.83883,-7.77817 41.54638,-22.32264 -75.84106,-48.03449 -27.7209,98.54914 113.68534,31.30015 z"
                 id="path3846" />
        </clipPath>
        <clipPath
             id="clipPath3852">
            <path
                 d="m 498.86383,770.93369 12.37437,-20.85966 -10.6066,-89.09545 -71.77134,17.67767 2.47488,95.81297 z"
                 id="path3854" />
        </clipPath>
        <clipPath
             id="clipPath3860">
            <path
                 d="m 580.88822,691.38417 19.79899,0 2.12132,74.95332 -86.62058,0 z"
                 id="path3862" />
        </clipPath>
    </defs>
    <g
         transform="translate(-347.30995,-690.13388)"
         id="g3087">
        <path
             d="m 410.76964,705.58573 c -7.10042,-8.86819 -14.22926,-13.71518 -26.44191,-13.80431 -20.11146,-0.14677 -37.17059,14.50149 -38.15529,34.58937 -0.9847,20.08788 14.50149,37.17058 34.58937,38.15528 20.08788,0.9847 32.92795,-14.50148 33.91265,-34.58937 l -21.87664,0"
             transform="translate(3.1819805,0.35355339)"
             clip-path="url(#clipPath3844)"
             id="path3058"
             style="fill:none;stroke:#767676;stroke-width:5;stroke-miterlimit:4;stroke-opacity:1;stroke-dashoffset:0"
             />
        <path
             d="m 447.95215,692.44483 0,71.41778 55.50788,0"
             clip-path="url(#clipPath3852)"
             id="path3848"
             style="fill:none;stroke:#767676;stroke-width:5;stroke-linecap:butt;stroke-linejoin:bevel;stroke-opacity:1"
             />
        <path
             d="m 521.49125,767.7517 69.65001,-77.07463 0,74.95332"
             clip-path="url(#clipPath3860)"
             id="path3856"
             style="fill:none;stroke:#767676;stroke-width:5;stroke-linecap:butt;stroke-linejoin:miter;stroke-opacity:1"
             />
        <path
             style="fill:none;stroke:#767676;stroke-width:5;stroke-linecap:butt;stroke-linejoin:miter;stroke-opacity:1"
             d="m 670.33723,704.11209 c -4.76998,-8.86305 -15.69738,-12.64424 -25.28593,-11.28893 -4.56313,0.55993 -9.27092,1.71213 -12.72615,4.95223 -4.95349,4.15334 -7.80377,11.61204 -4.80077,17.69762 3.77498,6.7166 11.60116,9.2877 18.65286,10.94008 8.102,2.07417 17.05679,3.36151 23.46019,9.22869 4.54001,4.0572 5.15477,10.9653 3.24928,16.45435 -2.70569,7.47071 -10.59396,12.09245 -18.34375,12.18333 -10.42782,1.76865 -22.20893,-1.71154 -28.04632,-11.02345"
             id="path3864"
             />
        <use
             transform="translate(74.953319,0)"
             id="use3866"
             x="0"
             y="0"
             width="744.09448"
             height="1052.3622"
             xlink:href="#path3864" />
    </g>
</svg>
